<svg xmlns="http://www.w3.org/2000/svg" xml:space="preserve" viewBox="0 0 100 100"><path fill="#480CA8" d="M0 0h100v100H0z"/><path fill="#FFF" d="M69.979 61.219c0 3.538-.897 6.68-2.692 9.424-1.795 2.745-4.384 4.878-7.766 6.4-3.382 1.521-7.35 2.282-11.902 2.282-3.799 0-6.985-.267-9.561-.8s-5.255-1.463-8.039-2.79V62a45.847 45.847 0 0 0 9.17 3.532c3.173.846 6.087 1.268 8.741 1.268 2.289 0 3.967-.396 5.034-1.189 1.066-.794 1.6-1.814 1.6-3.064 0-.779-.215-1.463-.644-2.048-.43-.585-1.119-1.177-2.068-1.776-.95-.598-3.479-1.82-7.59-3.668-3.721-1.69-6.511-3.329-8.371-4.917-1.86-1.586-3.239-3.408-4.136-5.463s-1.346-4.488-1.346-7.297c0-5.255 1.912-9.352 5.736-12.292 3.824-2.939 9.079-4.41 15.765-4.41 5.905 0 11.928 1.366 18.067 4.098l-4.722 11.902c-5.333-2.445-9.938-3.668-13.814-3.668-2.003 0-3.459.351-4.37 1.054-.911.702-1.366 1.574-1.366 2.614 0 1.119.579 2.121 1.736 3.005 1.158.885 4.298 2.498 9.424 4.839 4.917 2.211 8.331 4.585 10.243 7.122 1.915 2.534 2.871 5.728 2.871 9.577z"/></svg>